<svg xmlns="http://www.w3.org/2000/svg" data-name="outline create" viewBox="0 0 512 640" x="0px" y="0px"><path d="M194.1,119c-8.5-5.7-30.1-11.6-32.4-10.6a2,2,0,0,0-.9,2.7c8.2,16.7,30.9,41.4,59.9,41.9,1.6,13.4,3.7,26.9,6.2,40.6-14.6-16.5-36.5-28.4-63.9-34.5a1.9,1.9,0,0,0-1.9.7,1.8,1.8,0,0,0-.4,2c5.5,15.2,24.9,30.8,41.2,38.3a40.5,40.5,0,0,0,17.3,3.5,53.4,53.4,0,0,0,9.4-.8c2.4,11.9,5,24,8,36.1-11-5.7-22.8-10.3-34.2-14.8s-22.3-8.7-32-13.8a2,2,0,0,0-2,0,1.9,1.9,0,0,0-.9,1.8c.7,14.9,18.8,32.7,38.1,37.3a37,37,0,0,0,9.8,1.2c9.8,0,18.7-3.4,22.8-5.2,3.4,13.2,7.2,26.5,11.3,39.9-25.9-19.6-63.1-18.4-78.6-16.8a1.8,1.8,0,0,0-1.7,1.3,1.9,1.9,0,0,0,.5,2.1c11,10.9,37.3,17.5,48,19.8h.1a105.9,105.9,0,0,0,20.2,1.6c5.5,0,10.3-.3,13.1-.4h.7c.9,2.8,1.8,5.7,2.8,8.6,2.9,9,6.1,18,9.4,27.2-24.2-18.8-56.2-13-69.6-9.5a2.2,2.2,0,0,0-1.4,1.4,1.9,1.9,0,0,0,.5,1.9c10.6,11.4,34.2,15.9,43.8,17.3q3,.3,6,.3c9.4,0,19.2-2.1,23.4-2.9h.3c3.6,9.5,7.3,19.1,11.2,28.8-12.3-6.3-28-8.1-45.7-5.1a2,2,0,0,0-1.5,1.3,1.8,1.8,0,0,0,.3,2c6.7,8.2,22,13.2,33.6,13.9h1.2a29.6,29.6,0,0,0,15.2-4.6c4.8,11.7,9.9,23.5,15.3,35.5-7.2-4.9-16.9-7.4-28.6-7.5h0a2,2,0,0,0-1.9,2.7c2.8,7.7,12.9,13.8,21.4,16a23,23,0,0,0,4.2.4,26.8,26.8,0,0,0,9.4-1.8q20.5,44.6,46.6,92.3a2.2,2.2,0,0,0,1.8,1l.9-.2a2.1,2.1,0,0,0,.8-2.8c-22.2-40.7-41.3-79.4-57.6-116.7,14.1-2.7,22.8-19.7,26.3-35.4a2.4,2.4,0,0,0-.8-2.1,2,2,0,0,0-2.2-.1c-9.6,5.9-22.1,15.2-26.6,29.8q-7.8-18.2-14.7-36c12.3-2.1,26.8-13,35.2-23.2,3-3.7,6.8-10.3,7.5-21V304a2.1,2.1,0,0,0-.6-1.8,2,2,0,0,0-2.1-.4c-16.7,6.5-31.3,20.5-42.3,40.6-3.5-9.3-6.8-18.4-10-27.5,16.5-1.8,33.5-16.8,40.2-23.4s12.9-20.9,14.9-25.7a11.3,11.3,0,0,1,.6-1.4,2.1,2.1,0,0,0,.1-1.9,2,2,0,0,0-2-1.1c-34.2,2.5-49.9,30.4-56.2,46.4-.9-2.6-1.7-5.1-2.5-7.6-3.8-11.5-7.3-22.9-10.5-34.3a26.9,26.9,0,0,0,4,.3c7.8,0,15.6-3.1,23-9.2,14.9-12.1,25.2-34.1,24.6-52.2a2,2,0,0,0-1.2-1.8,2.2,2.2,0,0,0-2.2.4l-10.4,10.2c-13.5,12.8-27.4,26.2-39.7,45.6-3-11-5.7-22-8.2-32.8,25.8-2.8,41.3-31.5,47.3-58.1a1.9,1.9,0,0,0-.7-2,2,2,0,0,0-2.2-.2c-17,9.7-39.4,24.9-46.8,49.5-2.9-13.5-5.4-26.8-7.5-40,13-1.3,25.1-8.6,33.7-20.3s11.8-26.3,8.6-38.6a1.9,1.9,0,0,0-1.6-1.4,2,2,0,0,0-2,.7c-.3.4-.6,1.1-1.6,3-2.4,4.6-7.4,14.3-14.4,22.6h-.1a147.1,147.1,0,0,1-12.4,13.8c-4.2,4.3-8.3,8.4-11.4,12.7-1.6-11.5-3-22.8-4.1-34,20.4-3.3,33.4-30.9,38.9-56a2,2,0,0,0-.9-2.1,1.8,1.8,0,0,0-2.2,0c-12.9,9.1-29.7,23.2-36.9,44.6-1-13.9-1.5-27.7-1.6-41.2,13-20.2,17.6-47.1,13.3-77.8A2.1,2.1,0,0,0,231.9.1a2,2,0,0,0-2,.4c-12.3,10.5-20.1,34.1-21.4,52-.5,6,.4,15.6,7.4,27h.1c0,5.2.1,10.5.2,15.9-5.3-12.2-16.2-28.7-37.7-50.2L177.3,44a2.1,2.1,0,0,0-1.7-.8h0a2.1,2.1,0,0,0-2,2v.4c1.4,31.3,17.9,56.5,43.3,65.9q.9,16.1,2.7,32.4A100.3,100.3,0,0,0,194.1,119Zm-27.9-6.2c6.3,1.4,19.3,5.2,25.6,9.5a97.2,97.2,0,0,1,26.5,26.6C194.2,147.3,175,127.9,166.2,112.8Zm37.3,83.7C189.7,190,172.7,176.9,166,164c26.4,6.5,47.1,18.6,60.4,35.1C215.7,200.7,208.1,198.6,203.5,196.5Zm3.1,49h0c-17.5-4.2-31.6-18.3-34.6-29.9,9,4.4,18.7,8.2,28.9,12.2s23,9.1,34,14.7C229.2,244.8,217.4,248.5,206.6,245.5Zm11.9,42.3c-18.6-4-33.9-9.7-42.4-15.8,17.2-1.1,49.4-.4,71.7,17.1C240.9,289.4,228.5,289.7,218.5,287.8Zm19.4,48c-17.1-2.5-31.2-7.4-38.9-13.6,14.8-3.4,43.7-6.8,64.8,11.5C258.1,334.8,246.7,336.8,237.9,335.8ZM265.2,374c-9.2-.5-21.3-4.1-28.2-9.8,12.2-1.6,28-1.3,41.3,6.3A25.2,25.2,0,0,1,265.2,374Zm23.3,42.2c-6.2-1.6-13.7-5.6-17.2-10.7,8.9.5,19.6,2.7,27,9.9C293.7,416.9,290.5,416.7,288.5,416.2Zm26.2-55.3c-3.7,12.7-10.8,25-21.3,27.4C296.3,375.5,306,366.8,314.7,360.9Zm-.7-54.1c-1,8-3.9,13-6.3,15.9-7.3,9-20,18.8-30.9,21.5C286.7,326.2,299.5,313.4,314,306.8Zm.1-41.1c-2.1,5.2-7,16.3-13.4,23-12.7,12.4-26.1,20.4-36.7,22.1C269.3,296.4,283.3,269.7,314.1,265.7Zm-25.6-49.2,6.9-6.7c-1.2,15.7-10.6,33.9-23,44.1-5.4,4.5-13.7,9.3-23.4,8.1C261.1,242.6,275,229.3,288.5,216.5ZM280.1,172c-6.3,23.6-20.3,47.7-42.3,50.4C242.5,197.8,263.1,182.1,280.1,172ZM241,158.3a156.9,156.9,0,0,0,12.7-14.1,116.8,116.8,0,0,0,13.6-20.9c.9,9.8-2.3,20.5-9,29.6s-17.8,16.8-28.9,18.5C232.3,167.1,236.5,162.8,241,158.3Zm15.3-75.7c-5.6,21.8-16.8,43.9-33.1,47.5C227.5,107.7,243.1,92.6,256.3,82.6ZM178,50.5c26.1,26.6,35.2,44.9,37.9,56.3C194.8,97.8,180.7,76.8,178,50.5Zm34.4,2.3c1.2-15.3,7.5-35.8,17.3-46.6,3.2,27-.9,50.7-11.7,68.9C212.8,65.6,212.1,57.8,212.4,52.8Z"/><text x="0" y="527" fill="#000000" font-size="5px" font-weight="bold" font-family="'Helvetica Neue', Helvetica, Arial-Unicode, Arial, Sans-serif">Created by khanisorn chalermchan</text><text x="0" y="532" fill="#000000" font-size="5px" font-weight="bold" font-family="'Helvetica Neue', Helvetica, Arial-Unicode, Arial, Sans-serif">from the Noun Project</text></svg>