<svg xmlns="http://www.w3.org/2000/svg" data-name="outline create" viewBox="0 0 512 640" x="0px" y="0px"><path d="M196,355.8c-19.5-32.4-51.7-42.4-75-37.9a1.9,1.9,0,0,0-1.6,2.2c3.7,23.1,14.5,50.9,25.7,77.6s23.9,52.5,41.2,66.2a419.7,419.7,0,0,1-40.8,44.6,2.2,2.2,0,0,0-.1,2.9,2,2,0,0,0,1.5.6,2.4,2.4,0,0,0,1.4-.5,445.6,445.6,0,0,0,42.4-46.6h.2a426.1,426.1,0,0,0,26.1-37c13.3,10.4,32.2,15.9,54.1,15.9a154.9,154.9,0,0,0,22.1-1.7c35.5-5.8,67.3-23.5,89.7-49.8a2,2,0,0,0,.4-1.8c-3.6-14.2-11.8-25.2-23.9-31.9-14.6-8-33.7-8.8-53.8-2.2-30.6,9.8-57.1,29.9-75.3,49a437.3,437.3,0,0,0,31.8-72.8v-.2h0c0-.1.1-.2.1-.3,1.1-3.3,2.1-6.5,3.1-9.8,3.4-11,6.4-22.2,8.9-33.5a56.5,56.5,0,0,0,17.3,2.6c13.6,0,29-4.1,44.5-12,25.5-13.4,45.5-34.4,56.4-59.2a1.7,1.7,0,0,0-.2-1.8c-6.3-10-15.4-16.4-26.5-18.6-13.3-2.6-28.4,1.3-42.3,11-20.7,14.4-35.6,35.3-44.6,54.1a457.4,457.4,0,0,0,5.8-59.5h0v-.4h0v-.7c.4-15.1.1-30.2-1-45.2h.3c12.8,0,27.2-6.9,40.9-19.7,15.2-14.4,25.5-32.8,28.8-51.9a1.9,1.9,0,0,0-.7-1.8,30.6,30.6,0,0,0-22.7-8.2c-10.1.6-20.1,6.1-28.2,15.5-10.9,12.5-17.6,28.9-20.6,44q-2.4-19-6.3-37.8c3.7-15-1.4-43.3-18.4-67.1S218.3-2.4,206.6.5a1.8,1.8,0,0,0-1.3,1.1,1.8,1.8,0,0,0-.1,1.6c7.1,16.5,19,35,30.8,52.6,13.5,19.8,24.7,34.9,35.3,44a436.8,436.8,0,0,1,9.4,84.1c-5.2-14.5-15.4-29.3-29.9-37.6-21.4-12.6-41.4-7.3-51,3a2,2,0,0,0-.2,2.5c8.1,11.6,21.1,23.7,38.6,36s31.1,18.1,42.3,18.7a445.2,445.2,0,0,1-15.6,101.6c-.7-21.9-9.2-46.4-26.6-62.2-23.4-21.8-51.4-21.5-67.6-12.1a2,2,0,0,0-.9,2.5c7,15.9,19.4,33.9,38.9,56.6,14.4,16.3,31.4,33.7,48.7,39.8a437.5,437.5,0,0,1-54.7,109.1,112.3,112.3,0,0,0,6-29.2C210.1,391.6,205.6,371.4,196,355.8ZM305.1,95.2h0c7.4-8.5,16.5-13.6,25.4-14.1a26.5,26.5,0,0,1,19,6.4c-3.3,17.8-13,35.1-27.4,48.6-12.5,11.7-25.5,18.2-37,18.6,22.7-35.9,46-50.6,46.2-50.8l-.9-1.7.3-2c-.7-.1-1.2-.2-6,3.5a136.1,136.1,0,0,0-11.4,9.9,205.3,205.3,0,0,0-29.6,35.8C285,132.3,291.6,110.6,305.1,95.2ZM239.3,53.6C228.2,37,217,19.6,210,4c9.7-.4,28,7.9,43.6,30h0c13.5,19,19.2,40.8,18.7,55.7-11.6-33.5-29.8-55.5-40-65.9l-.6-.5a1.6,1.6,0,0,0-1-.8,1.9,1.9,0,0,0-2.3.8c-.9,1.4.1,2.3,1,3.3,10.1,10.3,28.1,32,39.5,65.4C260.1,83,250.5,69.9,239.3,53.6Zm86.5,160.2h0c13-9.1,27-12.8,39.2-10.4a36.3,36.3,0,0,1,23.4,15.9c-10.6,23.6-29.8,43.5-54.2,56.2-21,10.8-41.7,14.2-57.4,9.6,40.5-35,76.1-49.5,80.5-50.6h.3a1.9,1.9,0,0,0,1.5-2.4,2,2,0,0,0-1.3-1.5c-1.9-.6-16.1,5.9-27,11.9a324.8,324.8,0,0,0-53.9,37.3C284.3,258.8,300.6,231.3,325.8,213.8Zm29.6,19.5a1.6,1.6,0,0,0,.6.8A1.6,1.6,0,0,1,355.4,233.3ZM203.8,150.8c9-8.3,26.3-12.1,44.9-1.1h.1c17.9,10.3,28.7,30.8,31.3,47.7-10.9-14.7-28-31.8-52.1-40.2l-.8-.3a2.1,2.1,0,0,0-2.5.1,2,2,0,0,0-.7,1.9c.2,1.3,1.1,1.6,2.7,2.1,24.6,8.5,41.6,26.6,52.1,41.4-10-1.2-22.4-7-38.4-17.9S211.8,161.7,203.8,150.8Zm103,209.1h0c19.1-6.3,37.1-5.6,50.7,1.9,10.8,6,18.2,15.8,21.7,28.4-21.8,25.2-52.5,42.1-86.7,47.6-29.3,4.6-55.3,0-72-12.6,63.9-25.3,111.1-29.2,115.7-28.9h.7a1.9,1.9,0,0,0,1.9-2,2,2,0,0,0-.9-1.7c-1.8-1.1-19,.8-36.1,4.2a465.3,465.3,0,0,0-79.3,23.2C239.6,398.5,270.3,371.6,306.8,359.9Zm-95.1-69.7c-18.5-21.5-30.5-38.7-37.4-53.8,15.1-7.8,40.1-7.3,61.3,12.4h0c21.1,19.2,28.4,51.7,24.3,75.4-8.4-23.5-24.6-52.8-55.1-71.7l-1.2-.8a1.9,1.9,0,0,0-2.5-.6,2,2,0,0,0-1.2,1.7c-.1,1.3.7,1.8,2.8,3.1,30.8,19,46.5,49.1,54.4,72.4C241.2,322,225.3,305.7,211.7,290.2ZM191.3,456.7c.2-30.9-6.6-72.1-36.8-105.5l-1.3-1.5a2.1,2.1,0,0,0-3.9-.2c-.5,1.3.1,2,2.2,4.4,30.3,33.5,36.4,75.2,35.8,105.7-15.8-13.5-27.7-38.7-38.5-63.5s-21.2-52.4-25.2-74.6c21.8-3.3,51,6.6,69,36.4h0C211.4,388.3,206.7,431,191.3,456.7Z"/><text x="0" y="527" fill="#000000" font-size="5px" font-weight="bold" font-family="'Helvetica Neue', Helvetica, Arial-Unicode, Arial, Sans-serif">Created by khanisorn chalermchan</text><text x="0" y="532" fill="#000000" font-size="5px" font-weight="bold" font-family="'Helvetica Neue', Helvetica, Arial-Unicode, Arial, Sans-serif">from the Noun Project</text></svg>